<svg xmlns="http://www.w3.org/2000/svg" viewBox="0 0 500 500"><g id="freepik--background-complete--inject-6"><rect y="382.4" width="500" height="0.25" style="fill:#e6e6e6"></rect><rect x="101.17" y="392.99" width="34.4" height="0.25" style="fill:#e6e6e6"></rect><rect x="74.48" y="393.11" width="19.36" height="0.25" style="fill:#e6e6e6"></rect><rect x="175" y="392.53" width="39.24" height="0.25" style="fill:#e6e6e6"></rect><rect x="198.78" y="388.97" width="115.78" height="0.25" style="fill:#e6e6e6"></rect><rect x="360.68" y="389.1" width="52.99" height="0.25" style="fill:#e6e6e6"></rect><path d="M237,337.8H43.91a5.71,5.71,0,0,1-5.7-5.71V60.66A5.71,5.71,0,0,1,43.91,55H237a5.71,5.71,0,0,1,5.71,5.71V332.09A5.71,5.71,0,0,1,237,337.8ZM43.91,55.2a5.46,5.46,0,0,0-5.45,5.46V332.09a5.46,5.46,0,0,0,5.45,5.46H237a5.47,5.47,0,0,0,5.46-5.46V60.66A5.47,5.47,0,0,0,237,55.2Z" style="fill:#e6e6e6"></path><path d="M453.31,337.8H260.21a5.72,5.72,0,0,1-5.71-5.71V60.66A5.72,5.72,0,0,1,260.21,55h193.1A5.71,5.71,0,0,1,459,60.66V332.09A5.71,5.71,0,0,1,453.31,337.8ZM260.21,55.2a5.47,5.47,0,0,0-5.46,5.46V332.09a5.47,5.47,0,0,0,5.46,5.46h193.1a5.47,5.47,0,0,0,5.46-5.46V60.66a5.47,5.47,0,0,0-5.46-5.46Z" style="fill:#e6e6e6"></path><rect x="175" y="84.98" width="256.53" height="115.71" style="fill:#e0e0e0"></rect><rect x="177.54" y="84.98" width="259.43" height="115.71" style="fill:#f5f5f5"></rect><rect x="175" y="200.69" width="256.53" height="10.11" style="fill:#e0e0e0"></rect><rect x="186.61" y="200.69" width="259.43" height="10.11" style="fill:#f5f5f5"></rect><rect x="257.02" y="20.74" width="100.48" height="244.19" transform="translate(450.09 -164.42) rotate(90)" style="fill:#fafafa"></rect><polygon points="249.78 193.07 294.49 92.59 340.24 92.59 295.54 193.07 249.78 193.07" style="fill:#fff"></polygon><path d="M188.69,176.28a.55.55,0,0,1-.55-.54V97.55a.55.55,0,0,1,.55-.54.54.54,0,0,1,.54.54v78.19A.54.54,0,0,1,188.69,176.28Z" style="fill:#e6e6e6"></path><polygon points="312.74 193.07 357.44 92.59 373.27 92.59 328.56 193.07 312.74 193.07" style="fill:#fff"></polygon><rect x="378.63" y="142.35" width="100.48" height="0.97" transform="translate(571.7 -286.03) rotate(90)" style="fill:#e6e6e6"></rect><polygon points="438.77 100.27 182.24 100.27 181.54 95.56 438.07 95.56 438.77 100.27" style="fill:#e0e0e0"></polygon><polygon points="438.77 108.06 182.24 108.06 181.54 103.34 438.07 103.34 438.77 108.06" style="fill:#e0e0e0"></polygon><polygon points="438.77 115.85 182.24 115.85 181.54 111.14 438.07 111.14 438.77 115.85" style="fill:#e0e0e0"></polygon><polygon points="438.77 123.64 182.24 123.64 181.54 118.92 438.07 118.92 438.77 123.64" style="fill:#e0e0e0"></polygon><polygon points="438.77 131.43 182.24 131.43 181.54 126.71 438.07 126.71 438.77 131.43" style="fill:#e0e0e0"></polygon><polygon points="438.77 139.22 182.24 139.22 181.54 134.5 438.07 134.5 438.77 139.22" style="fill:#e0e0e0"></polygon><path d="M359.42,174.67c7.46,1,12.08-15.19-4.41-28.93C355.9,161.64,346.4,172.88,359.42,174.67Z" style="fill:#f0f0f0"></path><path d="M364.12,184.93c10.82-7.59,3.42-34.1-30.09-32.18C348.53,172.26,345.25,198.15,364.12,184.93Z" style="fill:#e0e0e0"></path><path d="M360.3,184.75c-7.2-7.75,3.05-27.25,28.93-20.13C374.62,177.46,372.85,198.26,360.3,184.75Z" style="fill:#e0e0e0"></path><polygon points="349.16 200.69 371.4 200.69 373.08 185.9 347.48 185.9 349.16 200.69" style="fill:#ebebeb"></polygon><rect x="345.82" y="185.28" width="28.92" height="3.26" transform="translate(720.56 373.82) rotate(180)" style="fill:#ebebeb"></rect><path d="M239.53,181.89s1.12,18.87,44,18.87,44-18.87,44-18.87Z" style="fill:#e0e0e0"></path><rect x="71.54" y="264.57" width="27.32" height="112.52" style="fill:#e6e6e6"></rect><rect x="76.78" y="377.09" width="219.83" height="5.31" style="fill:#e6e6e6"></rect><rect x="98.86" y="264.57" width="203" height="112.52" transform="translate(400.71 641.66) rotate(180)" style="fill:#fafafa"></rect><rect x="109.6" y="307.09" width="181.52" height="27.48" transform="translate(400.71 641.66) rotate(180)" style="fill:#e6e6e6"></rect><rect x="109.6" y="339.58" width="181.52" height="27.48" transform="translate(400.71 706.65) rotate(180)" style="fill:#e6e6e6"></rect><path d="M254.51,310.1H146.2a1.89,1.89,0,0,1-1.89-1.88h0a1.89,1.89,0,0,1,1.89-1.89H254.51a1.89,1.89,0,0,1,1.89,1.89h0A1.89,1.89,0,0,1,254.51,310.1Z" style="fill:#fafafa"></path><rect x="109.6" y="274.6" width="181.52" height="27.48" transform="translate(400.71 576.67) rotate(180)" style="fill:#e6e6e6"></rect><path d="M254.51,277.61H146.2a1.89,1.89,0,0,1-1.89-1.89h0a1.89,1.89,0,0,1,1.89-1.88H254.51a1.89,1.89,0,0,1,1.89,1.88h0A1.89,1.89,0,0,1,254.51,277.61Z" style="fill:#fafafa"></path><path d="M254.51,342.6H146.2a1.89,1.89,0,0,1-1.89-1.89h0a1.89,1.89,0,0,1,1.89-1.88H254.51a1.89,1.89,0,0,1,1.89,1.88h0A1.89,1.89,0,0,1,254.51,342.6Z" style="fill:#fafafa"></path><rect x="98.86" y="255.33" width="206.64" height="9.24" style="fill:#e6e6e6"></rect><rect x="67.72" y="255.33" width="31.14" height="9.24" transform="translate(166.58 519.91) rotate(180)" style="fill:#e0e0e0"></rect><rect x="66.56" y="110.23" width="65.49" height="71.91" style="fill:#e0e0e0"></rect><path d="M124,113.41a.53.53,0,0,1-.27-.08c-.16-.09-15.57-9.26-20.42-9.26s-19.55,9.16-19.69,9.25a.54.54,0,1,1-.58-.92c.61-.38,15.11-9.42,20.27-9.42s20.33,9,21,9.41a.55.55,0,0,1-.28,1Z" style="fill:#e0e0e0"></path><rect x="71.49" y="110.23" width="67.64" height="71.91" style="fill:#f5f5f5"></rect><rect x="75.03" y="118.03" width="60.58" height="56.31" transform="translate(251.5 40.87) rotate(90)" style="fill:#fff"></rect><path d="M119,160.43H91.61a.54.54,0,0,1-.54-.54V132.48a.54.54,0,0,1,.54-.54H119a.54.54,0,0,1,.54.54v27.41A.54.54,0,0,1,119,160.43Zm-26.87-1.09h26.32V133H92.15Z" style="fill:#f5f5f5"></path><polygon points="96.41 137.28 114.22 155.09 114.22 137.28 96.41 137.28" style="fill:#f5f5f5"></polygon><rect x="327.35" y="336.36" width="38.52" height="46.16" transform="translate(693.23 718.89) rotate(180)" style="fill:#e6e6e6"></rect><polygon points="327.35 336.36 365.87 336.36 358.14 322.59 319.62 322.59 327.35 336.36" style="fill:#e6e6e6"></polygon><polygon points="403.43 322.59 441.95 322.59 434.22 336.36 395.7 336.36 403.43 322.59" style="fill:#f0f0f0"></polygon><rect x="365.87" y="336.36" width="68.34" height="46.16" style="fill:#fafafa"></rect><rect x="365.33" y="351.61" width="15.66" height="15.66" style="fill:#e6e6e6"></rect></g><g id="freepik--Shadow--inject-6"><ellipse cx="250" cy="416.24" rx="193.89" ry="11.32" style="fill:#f5f5f5"></ellipse></g><g id="freepik--Character--inject-6"><path d="M228.64,108.11c1.24-3.79,1.87-24.5-18.92-19.51-15.45,3.71-10.85,23.37-25.88,25.59,0,0,22.12,10.5,29.32-4,5.67-11.45,11.56-1.06,11.56-1.06Z" style="fill:#263238"></path><path d="M224.39,111.72c-.93-.84-1.33-2.94-.61-3.28s4.53-1.4,5.6-1.21c1.22.21,1,3.16,1,3.16Z" style="fill:#123C69"></path><path d="M224.39,111.72c-.93-.84-1.33-2.94-.61-3.28s4.53-1.4,5.6-1.21c1.22.21,1,3.16,1,3.16Z" style="opacity:0.2"></path><polygon points="169.59 346.08 176.95 346.8 184.6 329.3 177.24 328.58 169.59 346.08" style="fill:#e4897b"></polygon><polygon points="103.35 300.39 106.66 307.24 123.59 301.77 120.28 294.92 103.35 300.39" style="fill:#e4897b"></polygon><path d="M108.51,306.8l.58-8.54a.61.61,0,0,0-.48-.64l-6.68-1.43a1.22,1.22,0,0,0-1.43,1.12c-.16,3-.08,4.43-.34,8.18-.16,2.31-.84,7.39-1.06,10.57s2.92,3.58,3.3,2.27c1.68-5.86,3.73-8.41,5.55-10.3A2,2,0,0,0,108.51,306.8Z" style="fill:#263238"></path><path d="M177.92,344.53h-9a.75.75,0,0,0-.71.55l-2,7.14a1.12,1.12,0,0,0,1.1,1.43c3.18,0,4.69,0,8.66,0h12.14c3.29,0,4-3.34,2.62-3.64-6.12-1.36-9.65-3.22-11.54-5A1.86,1.86,0,0,0,177.92,344.53Z" style="fill:#263238"></path><polygon points="184.59 329.31 180.65 338.33 172.98 338.33 177.24 328.59 184.59 329.31" style="fill:#ce6f64"></polygon><polygon points="120.28 294.92 123.59 301.77 114.86 304.59 111.55 297.73 120.28 294.92" style="fill:#ce6f64"></polygon><path d="M108.12,311.14a1,1,0,0,1-.82-.36c-.6-.76-.19-2.5.11-3.46a.18.18,0,0,1,.15-.13.21.21,0,0,1,.18.09c.15.27,1.48,2.68,1,3.54a.61.61,0,0,1-.53.32Zm-.49-3.3c-.35,1.31-.37,2.31,0,2.71a.67.67,0,0,0,.63.23.25.25,0,0,0,.23-.13C108.69,310.2,108.14,308.82,107.63,307.84Z" style="fill:#123C69"></path><path d="M110.1,309.59c-.88,0-2.33-1.42-2.68-2.14a.19.19,0,0,1,0-.18.23.23,0,0,1,.16-.08c.1,0,2.28.17,3,1a1,1,0,0,1,.19.78.63.63,0,0,1-.55.57Zm-2.18-2c.53.77,1.7,1.73,2.23,1.64.08,0,.19-.05.23-.28a.55.55,0,0,0-.12-.49A4.2,4.2,0,0,0,107.92,307.58Z" style="fill:#123C69"></path><path d="M181.93,346a12.41,12.41,0,0,1-2.47-.31.18.18,0,0,1-.14-.16.17.17,0,0,1,.1-.18c.61-.29,3.68-1.68,4.5-1.13a.54.54,0,0,1,.23.49,1.15,1.15,0,0,1-.46.87A3,3,0,0,1,181.93,346Zm-1.85-.55c1.62.29,2.86.24,3.39-.16a.79.79,0,0,0,.32-.6c0-.11,0-.15-.07-.17C183.28,344.24,181.43,344.88,180.08,345.47Z" style="fill:#123C69"></path><path d="M179.5,345.71a.16.16,0,0,1-.12,0,.19.19,0,0,1-.06-.18c0-.14.79-3.39,2.59-3.18.46.05.59.28.61.47.12.85-1.94,2.5-3,2.92Zm2.24-3c-1.08,0-1.73,1.75-2,2.54,1-.57,2.46-1.88,2.4-2.37,0-.09-.12-.14-.31-.17Z" style="fill:#123C69"></path><path d="M221.13,196.62s1,60.39-6.89,82.21c-7.6,20.92-30.27,56.88-30.27,56.88l-13.14-.33s20.87-45.53,24.29-63.55c5.68-29.87,4.43-82,4.43-82Z" style="fill:#123C69"></path><path d="M221.13,196.62s1,60.39-6.89,82.21c-7.6,20.92-30.27,56.88-30.27,56.88l-13.14-.33s20.87-45.53,24.29-63.55c5.68-29.87,4.43-82,4.43-82Z" style="fill:#fff;opacity:0.5"></path><path d="M209.33,201.78l-3.53-10-6.25-2s.57,23.73-.8,48.34C204.42,227.25,209.33,207.25,209.33,201.78Z" style="fill:#123C69;opacity:0.22"></path><path d="M214.67,194.67s-20.5,46.89-33.75,73.58c-10.7,21.56-63,37.15-63,37.15l-4.12-9.64s39.1-17.62,46.49-32.24c23.65-46.78,17.82-66.06,31.42-76.23Z" style="fill:#123C69"></path><path d="M214.67,194.67s-20.5,46.89-33.75,73.58c-10.7,21.56-63,37.15-63,37.15l-4.12-9.64s39.1-17.62,46.49-32.24c23.65-46.78,17.82-66.06,31.42-76.23Z" style="fill:#fff;opacity:0.5"></path><path d="M242.26,117.5c.46,2.63.66,11.34-5.43,13.25S242.26,117.5,242.26,117.5Z" style="fill:#263238"></path><path d="M239.73,156.86l.39.51.47.59c.33.4.66.8,1,1.19.69.8,1.45,1.56,2.21,2.3a42.37,42.37,0,0,0,4.89,4.17,44.55,44.55,0,0,0,5.43,3.46c.94.54,1.93.95,2.9,1.42l.16.08s.05,0,.08,0a1.46,1.46,0,0,0,.27,0,3.62,3.62,0,0,0,.95,0,17.77,17.77,0,0,0,5.4-2.19,63.87,63.87,0,0,0,5.6-3.61c1.84-1.31,3.65-2.72,5.43-4.17s3.57-2.94,5.29-4.42l2.8,2.66a93.85,93.85,0,0,1-10,10.36,56.17,56.17,0,0,1-5.81,4.56,23.42,23.42,0,0,1-7.36,3.51,11,11,0,0,1-2.54.28,9.4,9.4,0,0,1-1.46-.15c-.26-.06-.51-.11-.77-.19l-.66-.23c-1.18-.47-2.37-.9-3.51-1.46a43.37,43.37,0,0,1-6.62-3.7,49.24,49.24,0,0,1-5.93-4.76c-.91-.88-1.8-1.79-2.65-2.76-.43-.48-.84-1-1.25-1.49l-.6-.79c-.21-.28-.38-.52-.64-.91Z" style="fill:#e4897b"></path><path d="M231.19,151.55c9.17.78,14.75,9.59,14.75,9.59l-11,10.77s-7.49-7.56-8.17-11.71C226.08,155.87,226.48,151.15,231.19,151.55Z" style="fill:#263238"></path><path d="M279.63,158.12l.37-6.79L287,155.2s-2,3.77-4.92,4.9Z" style="fill:#e4897b"></path><polygon points="284.46 146.34 289.08 150.18 286.95 155.2 280 151.33 284.46 146.34" style="fill:#e4897b"></polygon><path d="M238.62,154.09s2.91,2.14-17.49,42.53l-29.47-9.33c4.29-11.84,6.64-19.23,8.7-45.66a91,91,0,0,1,13,2.31,98.09,98.09,0,0,1,13.39,4.24A129.45,129.45,0,0,1,238.62,154.09Z" style="fill:#263238"></path><path d="M219.49,129.29c-.52,4.58-2.17,12.73-6.1,14.65,0,0-.2,4.74,7.8,7.27,8.8,2.79,5.59-3,5.59-3-4.44-2.67-3.19-6.19-1.3-9.27Z" style="fill:#e4897b"></path><path d="M221.93,133.21l3.55,5.69a14.11,14.11,0,0,0-1.16,2.25c-1.75-.85-4-3.37-3.59-5.35A8.16,8.16,0,0,1,221.93,133.21Z" style="fill:#ce6f64"></path><path d="M221.57,119.1c-2.52,7.13-3.73,10.09-1.74,15.14,3,7.59,12.3,9.12,16.89,2.9,4.14-5.61,7.56-16.31,1.94-22A10.31,10.31,0,0,0,221.57,119.1Z" style="fill:#e4897b"></path><path d="M220.15,125c3.68-.42,9.8-4.42,10.21-7.48,0,0,7.37,5.08,11.25,2.67,3.39-2.11-4.22-12-13.28-10.56C218.48,111.18,217.22,119.94,220.15,125Z" style="fill:#263238"></path><path d="M217.84,124.91a5.54,5.54,0,0,0,.41,4.2c.93,1.7,2.77,1.2,3.67-.4.81-1.44,1.31-4.05-.18-5.22A2.48,2.48,0,0,0,217.84,124.91Z" style="fill:#e4897b"></path><polygon points="185.82 336.39 169.59 335.98 170.53 330.99 188.25 331.83 185.82 336.39" style="fill:#123C69"></polygon><polygon points="118 306.6 112.82 294.5 117.34 291.78 122.75 305.52 118 306.6" style="fill:#123C69"></polygon><path d="M231.27,125.51c-.23.56-.13,1.15.24,1.3s.86-.17,1.1-.73.14-1.16-.23-1.31S231.51,124.94,231.27,125.51Z" style="fill:#263238"></path><path d="M237.66,128.22c-.24.56-.13,1.15.24,1.3s.86-.17,1.1-.74.14-1.15-.23-1.3S237.9,127.65,237.66,128.22Z" style="fill:#263238"></path><path d="M238.59,127.44l1.52.18S239,128.39,238.59,127.44Z" style="fill:#263238"></path><path d="M235.56,128.47a16.38,16.38,0,0,0,.49,4.46,2.66,2.66,0,0,1-2.18-.47Z" style="fill:#de5753"></path><path d="M231,133.85h-.07a5.15,5.15,0,0,1-3.12-3.57.19.19,0,0,1,.14-.21.18.18,0,0,1,.21.15,4.92,4.92,0,0,0,2.91,3.3.18.18,0,0,1,.1.23A.18.18,0,0,1,231,133.85Z" style="fill:#263238"></path><path d="M230.36,122.66a.36.36,0,0,1-.18-.67,3.59,3.59,0,0,1,3.29-.23.36.36,0,0,1,.16.49.39.39,0,0,1-.49.16,2.84,2.84,0,0,0-2.6.2A.27.27,0,0,1,230.36,122.66Z" style="fill:#263238"></path><path d="M242,126.53a.35.35,0,0,1-.35-.29,2.91,2.91,0,0,0-1.53-2.11.35.35,0,0,1-.2-.47.37.37,0,0,1,.47-.2,3.58,3.58,0,0,1,2,2.64.36.36,0,0,1-.29.42Z" style="fill:#263238"></path><path d="M200.74,153.3c-.92,1.17-1.78,2.15-2.71,3.16s-1.86,2-2.82,2.94c-1.94,1.9-4,3.71-6.07,5.43a63.74,63.74,0,0,1-6.67,4.8c-.57.38-1.18.72-1.77,1.07s-1.19.71-1.82,1-1.2.64-1.89,1l-1.12.49-1.14.4a26.21,26.21,0,0,1-8.83,1,47.15,47.15,0,0,1-8.23-1.12,80,80,0,0,1-7.79-2.19,76.77,76.77,0,0,1-7.46-3l1.44-3.58c2.38.69,4.89,1.35,7.36,1.87a73.81,73.81,0,0,0,7.42,1.28,47.62,47.62,0,0,0,7.3.37,27.46,27.46,0,0,0,3.45-.32,19.1,19.1,0,0,0,3.11-.82l.69-.28.65-.33c.47-.25,1-.61,1.53-.9s1-.63,1.54-1,1-.65,1.51-1c2-1.41,3.91-3,5.81-4.59s3.68-3.33,5.43-5.11c.89-.88,1.75-1.78,2.6-2.69s1.69-1.88,2.41-2.72Z" style="fill:#e4897b"></path><path d="M146.22,165.84l-3.86-5.59-3.9,6.93s3.64,2.19,6.75,1.61Z" style="fill:#e4897b"></path><polygon points="135.94 158.33 134.01 164.02 138.46 167.18 142.36 160.25 135.94 158.33" style="fill:#e4897b"></polygon><path d="M200.36,141.63c-3.83-.17-11.36,9.24-11.36,9.24l8.06,11.41s8.54-7.34,9.22-12.22C206.86,145.91,205.24,141.85,200.36,141.63Z" style="fill:#263238"></path><path d="M232.2,124.73l1.52.18S232.58,125.68,232.2,124.73Z" style="fill:#263238"></path><path d="M216.52,140c-.55-.46-1,1.12-1.18,1.76a.46.46,0,0,0,.14.47c1.08.93,5.78,3.64,8.46,2.79a.3.3,0,0,0,.21-.28,17.35,17.35,0,0,1-.1-1.81.28.28,0,0,0-.28-.31A10.93,10.93,0,0,1,216.52,140Z" style="fill:#123C69"></path><path d="M216.52,140c-.55-.46-1,1.12-1.18,1.76a.46.46,0,0,0,.14.47c1.08.93,5.78,3.64,8.46,2.79a.3.3,0,0,0,.21-.28,17.35,17.35,0,0,1-.1-1.81.28.28,0,0,0-.28-.31A10.93,10.93,0,0,1,216.52,140Z" style="opacity:0.2"></path><path d="M191.76,185.42l-2.16,2.22c-.17.17,0,.46.35.57L220.86,198c.26.09.52,0,.59-.13l1.1-2.56c.08-.18-.1-.4-.39-.49l-29.85-9.45A.57.57,0,0,0,191.76,185.42Z" style="fill:#123C69"></path><path d="M191.76,185.42l-2.16,2.22c-.17.17,0,.46.35.57L220.86,198c.26.09.52,0,.59-.13l1.1-2.56c.08-.18-.1-.4-.39-.49l-29.85-9.45A.57.57,0,0,0,191.76,185.42Z" style="opacity:0.2"></path><path d="M194.72,190l-.8-.26c-.16-.05-.26-.17-.21-.26l1.45-3.31a.31.31,0,0,1,.37-.09l.8.26c.16,0,.26.17.21.26l-1.46,3.31C195,190,194.88,190.08,194.72,190Z" style="fill:#123C69"></path><path d="M218.52,197.56l-.8-.25c-.16-.05-.25-.17-.21-.27l1.46-3.31c0-.1.21-.14.37-.08l.8.25c.15,0,.25.17.21.27l-1.46,3.3C218.85,197.57,218.68,197.61,218.52,197.56Z" style="fill:#123C69"></path><path d="M206.62,193.79l-.8-.25c-.16,0-.25-.17-.21-.27l1.46-3.31c0-.09.2-.13.36-.08l.8.25c.16.05.26.17.22.27L207,193.71C206.94,193.81,206.78,193.84,206.62,193.79Z" style="fill:#123C69"></path><path d="M194.72,190l-.8-.26c-.16-.05-.26-.17-.21-.26l1.45-3.31a.31.31,0,0,1,.37-.09l.8.26c.16,0,.26.17.21.26l-1.46,3.31C195,190,194.88,190.08,194.72,190Z" style="fill:#fff;opacity:0.5"></path><path d="M218.52,197.56l-.8-.25c-.16-.05-.25-.17-.21-.27l1.46-3.31c0-.1.21-.14.37-.08l.8.25c.15,0,.25.17.21.27l-1.46,3.3C218.85,197.57,218.68,197.61,218.52,197.56Z" style="fill:#fff;opacity:0.5"></path><path d="M206.62,193.79l-.8-.25c-.16,0-.25-.17-.21-.27l1.46-3.31c0-.09.2-.13.36-.08l.8.25c.16.05.26.17.22.27L207,193.71C206.94,193.81,206.78,193.84,206.62,193.79Z" style="fill:#fff;opacity:0.5"></path></g><g id="freepik--Statistics--inject-6"><path d="M99.83,348.48c15.94,24,63.05,27.71,83.06,13.38,28.4-20.34,26.83-74.1,56.33-93.15,54.24-35,120.52,61.12,162.45-34.38V412.78H99.83Z" style="fill:#123C69;opacity:0.2"></path><path d="M150.85,370.69a84.54,84.54,0,0,1-15.24-1.39c-16.48-3-29.32-10.33-36.13-20.58a.43.43,0,0,1,.71-.47c6.59,9.91,19.55,17.28,35.57,20.21,18,3.3,36.38.57,46.88-6.95,13.84-9.91,20.65-28.18,27.23-45.85,6.87-18.45,14-37.53,29.12-47.31,22.36-14.44,46.82-6.73,70.49.72,34.54,10.89,67.18,21.17,91.8-34.91a.43.43,0,0,1,.78.34c-11.35,25.84-25,39.51-42.91,43-15.8,3.1-32.38-2.12-49.93-7.65-23.47-7.39-47.75-15-69.77-.81-14.9,9.62-22,28.56-28.79,46.89-6.62,17.79-13.48,36.18-27.52,46.25C175.46,367.7,163.65,370.69,150.85,370.69Z" style="fill:#123C69"></path><rect x="82.05" y="325.78" width="42.79" height="87" style="fill:#123C69"></rect><rect x="82.05" y="325.78" width="42.79" height="87" style="opacity:0.30000000000000004"></rect><rect x="152.49" y="353.67" width="42.79" height="59.11" style="fill:#123C69"></rect><rect x="152.49" y="353.67" width="42.79" height="59.11" style="opacity:0.30000000000000004"></rect><rect x="222.93" y="303.73" width="42.79" height="109.05" style="fill:#123C69"></rect><rect x="222.93" y="303.73" width="42.79" height="109.05" style="opacity:0.30000000000000004"></rect><rect x="293.36" y="243.81" width="42.79" height="168.97" style="fill:#123C69"></rect><rect x="293.36" y="243.81" width="42.79" height="168.97" style="opacity:0.30000000000000004"></rect><rect x="363.8" y="160.79" width="42.79" height="251.99" style="fill:#123C69"></rect><rect x="363.8" y="160.79" width="42.79" height="251.99" style="opacity:0.30000000000000004"></rect><rect x="93.41" y="325.78" width="42.79" height="87" style="fill:#123C69"></rect><rect x="93.41" y="325.78" width="42.79" height="87" style="opacity:0.1"></rect><rect x="163.85" y="353.67" width="42.79" height="59.11" style="fill:#123C69"></rect><rect x="163.85" y="353.67" width="42.79" height="59.11" style="opacity:0.1"></rect><rect x="234.28" y="303.73" width="42.79" height="109.05" style="fill:#123C69"></rect><rect x="234.28" y="303.73" width="42.79" height="109.05" style="opacity:0.1"></rect><rect x="304.72" y="243.81" width="42.79" height="168.97" style="fill:#123C69"></rect><rect x="304.72" y="243.81" width="42.79" height="168.97" style="opacity:0.1"></rect><rect x="375.16" y="160.79" width="42.79" height="251.99" style="fill:#123C69"></rect><rect x="375.16" y="160.79" width="42.79" height="251.99" style="opacity:0.1"></rect><path d="M329.74,196.13A14.66,14.66,0,0,0,309,216.86l10.37,10.36,10.36-10.37A14.65,14.65,0,0,0,329.74,196.13Z" style="fill:#123C69"></path><path d="M329.74,196.13A14.66,14.66,0,0,0,309,216.86l10.37,10.36,10.36-10.37A14.65,14.65,0,0,0,329.74,196.13Z" style="opacity:0.1"></path></g></svg>