<svg xmlns="http://www.w3.org/2000/svg" viewBox="0 0 500 500"><g id="freepik--background-complete--inject-137"><rect x="275.96" y="53.21" width="136.06" height="207.55" transform="translate(687.98 313.98) rotate(180)" style="fill:#ebebeb"></rect><rect x="347.13" y="61.53" width="57.51" height="92.32" transform="translate(751.78 215.37) rotate(180)" style="fill:#fff"></rect><rect x="283.34" y="61.53" width="57.51" height="92.32" transform="translate(624.18 215.37) rotate(180)" style="fill:#fff"></rect><rect x="347.13" y="160.13" width="57.51" height="92.32" transform="translate(751.78 412.58) rotate(180)" style="fill:#fff"></rect><rect x="283.34" y="160.13" width="57.51" height="92.32" transform="translate(624.18 412.58) rotate(180)" style="fill:#fff"></rect><polygon points="328.45 53.21 275.96 53.21 275.96 350.14 306.34 350.14 285.13 199.05 328.45 53.21" style="fill:#dbdbdb"></polygon><polygon points="319.35 61.24 311.03 95.75 302.56 130.23 285.62 199.17 285.63 199 293.47 271.05 297.38 307.08 301.14 343.12 296.89 307.13 292.8 271.12 284.64 199.11 284.63 199.02 284.65 198.93 301.92 130.07 310.56 95.64 319.35 61.24" style="fill:#ebebeb"></polygon><polygon points="279.08 67.33 279.33 97.11 279.47 126.89 279.58 186.45 279.47 246 279.33 275.78 279.08 305.56 278.84 275.78 278.7 246 278.58 186.45 278.7 126.89 278.84 97.11 279.08 67.33" style="fill:#ebebeb"></polygon><path d="M288.89,72.91l-1.63,31.65-1.77,31.65-3.56,63.28v0c.35,11.76.57,23.51.86,35.26l.84,35.26.83,35.26.66,35.27L284,305.25,283,270l-1-35.25c-.32-11.76-.71-23.51-1-35.26v0l3.88-63.27,1.95-31.63Z" style="fill:#ebebeb"></path><path d="M295.72,335.93l-3.43-34.16L289,267.59c-2.13-22.79-4.35-45.57-6.4-68.37v-.06l0-.07,9.73-53.21,4.93-26.59,5-26.58-4.59,26.66L293,146l-9.48,53.25v-.13c2.17,22.79,4.19,45.59,6.29,68.39l3,34.2Z" style="fill:#ebebeb"></path><rect x="275.96" y="196.56" width="11.85" height="6.92" transform="translate(563.77 400.04) rotate(180)" style="fill:#dbdbdb"></rect><rect x="379.96" y="53.21" width="32.06" height="296.93" transform="translate(791.98 403.36) rotate(180)" style="fill:#dbdbdb"></rect><polygon points="386.04 67.33 386.28 99.44 386.37 131.54 386.54 195.75 386.37 259.96 386.28 292.07 386.04 324.17 385.8 292.07 385.71 259.96 385.54 195.75 385.71 131.54 385.8 99.44 386.04 67.33" style="fill:#ebebeb"></polygon><polygon points="400.76 74.78 401 103.44 401.14 132.11 401.26 189.44 401.14 246.78 401 275.44 400.76 304.11 400.52 275.44 400.38 246.78 400.26 189.44 400.38 132.11 400.52 103.44 400.76 74.78" style="fill:#ebebeb"></polygon><polygon points="393.4 81.54 393.64 115.11 393.73 148.68 393.9 215.81 393.73 282.95 393.64 316.51 393.4 350.08 393.15 316.51 393.07 282.95 392.9 215.81 393.07 148.68 393.16 115.11 393.4 81.54" style="fill:#ebebeb"></polygon><polygon points="406.24 69.02 406.48 104.16 406.57 139.29 406.73 209.55 406.57 279.82 406.48 314.95 406.24 350.08 405.99 314.95 405.9 279.82 405.74 209.55 405.9 139.29 405.99 104.16 406.24 69.02" style="fill:#ebebeb"></polygon><rect x="56.62" y="121.17" width="166.63" height="7.31" transform="translate(279.88 249.64) rotate(180)" style="fill:#ebebeb"></rect><rect x="206.6" y="128.48" width="7.31" height="24.17" style="fill:#ebebeb"></rect><rect x="206.6" y="128.48" width="7.31" height="7.47" style="fill:#dbdbdb"></rect><rect x="65.96" y="128.48" width="7.31" height="24.17" style="fill:#ebebeb"></rect><rect x="65.96" y="128.48" width="7.31" height="7.47" style="fill:#dbdbdb"></rect><rect x="163" y="92.02" width="46.57" height="11.73" transform="translate(284.17 -88.4) rotate(90)" style="fill:#c7c7c7"></rect><rect x="183.73" y="68.8" width="5.12" height="11.73" transform="translate(260.95 -111.62) rotate(90)" style="fill:#dbdbdb"></rect><rect x="185.34" y="78.87" width="1.9" height="11.73" transform="translate(271.02 -101.56) rotate(90)" style="fill:#dbdbdb"></rect><rect x="183" y="105.91" width="5.12" height="13.19" transform="translate(298.06 -73.06) rotate(90)" style="fill:#dbdbdb"></rect><rect x="149.16" y="89.91" width="54.33" height="8.2" transform="translate(270.33 -82.32) rotate(90)" style="fill:#dbdbdb"></rect><rect x="165.91" y="79.94" width="20.89" height="4.92" transform="translate(258.76 -93.96) rotate(90)" style="fill:#ebebeb"></rect><rect x="108.95" y="95.07" width="54.33" height="8.2" transform="translate(302.64 74.01) rotate(135.33)" style="fill:#c7c7c7"></rect><rect x="122.83" y="99.48" width="20.89" height="4.92" transform="translate(299.72 80.75) rotate(135.33)" style="fill:#dbdbdb"></rect><rect x="144.64" y="93.59" width="41.26" height="13.92" transform="translate(265.82 -64.73) rotate(90)" style="fill:#a6a6a6"></rect><rect x="163.35" y="107.92" width="3.85" height="13.92" transform="translate(280.15 -50.39) rotate(90)" style="fill:#c7c7c7"></rect><rect x="164.53" y="102.73" width="1.49" height="13.92" transform="translate(274.96 -55.59) rotate(90)" style="fill:#c7c7c7"></rect><rect x="177.57" y="96.98" width="38.78" height="9.61" transform="translate(298.75 -95.17) rotate(90)" style="fill:#a6a6a6"></rect><rect x="195.15" y="110.45" width="3.61" height="9.61" transform="translate(312.22 -81.7) rotate(90)" style="fill:#c7c7c7"></rect><rect x="195.15" y="87.39" width="3.61" height="9.61" transform="translate(289.16 -104.76) rotate(90)" style="fill:#c7c7c7"></rect><rect x="196.26" y="92.38" width="1.4" height="9.61" transform="translate(294.14 -99.78) rotate(90)" style="fill:#c7c7c7"></rect><path d="M90.32,71.49c8.2,8,9.58,20.46,7.85,31.34,0,.24-.43.18-.43-.06,0-2.47.08-4.93.07-7.37,0-.12-.08-.22-.13-.33a16.53,16.53,0,0,1-5.33-5.73c-1.37-2.69-1.91-5.73-2.95-8.55-.1-.27.19-.19.37-.05,5,3.68,6.58,7.64,8,12.93a44.44,44.44,0,0,0-.87-8.24A28.09,28.09,0,0,0,90.1,71.71.16.16,0,0,1,90.32,71.49Z" style="fill:#a6a6a6"></path><path d="M88.78,72.43c-1.42,0-2.3,2.3-3.4,3a1.06,1.06,0,0,1-1.56-.25c-1.09-1.52.41-3.39,1.81-4.44A15.39,15.39,0,0,1,82.71,72a1,1,0,0,1-1.32-.79c-.48-2.07,2.12-3,3.91-3-.87-.6-3.35-2.23-2-3s4.25,1.53,5.19,2.3c1.4,1.13,3.06,2.83,3.13,4.6C91.67,74.13,89.86,72.86,88.78,72.43Z" style="fill:#dbdbdb"></path><path d="M89.18,72.78c-1.8-.83-5.27.36-5.56-.33-.6-1.39,2.17-2.34,3.67-2.53-1.38-.37-4-1-3.94-2.29.1-1.62,4.05-.23,6.05,1.3,2.51,1.93,2.5,3.8,2.08,4.17C90.91,73.61,89.48,72.91,89.18,72.78Z" style="fill:#ebebeb"></path><path d="M109,70.7c-8.5,7.71-10.35,20.07-9,31,0,.25.42.2.43,0,.09-2.47.11-4.93.21-7.37l.14-.33a16.4,16.4,0,0,0,5.54-5.51c1.48-2.64,2.13-5.66,3.28-8.43.11-.27-.18-.2-.37-.07-5.13,3.49-6.87,7.39-8.5,12.62a44.3,44.3,0,0,1,1.18-8.2,28.09,28.09,0,0,1,7.34-13.46A.15.15,0,0,0,109,70.7Z" style="fill:#a6a6a6"></path><path d="M110.5,71.69c1.41.1,2.21,2.39,3.28,3.09a1.06,1.06,0,0,0,1.57-.19c1.15-1.48-.28-3.41-1.64-4.51a15.82,15.82,0,0,0,2.87,1.46,1,1,0,0,0,1.35-.74c.55-2.06-2-3.08-3.79-3.19.88-.57,3.42-2.11,2.14-3S112,66,111,66.75c-1.44,1.08-3.16,2.71-3.29,4.47C107.55,73.28,109.4,72.08,110.5,71.69Z" style="fill:#dbdbdb"></path><path d="M110.08,72c1.84-.75,5.25.56,5.57-.11.65-1.36-2.08-2.42-3.56-2.66,1.39-.32,4-.82,4-2.15,0-1.62-4-.38-6.09,1.08-2.58,1.83-2.64,3.69-2.24,4.08C108.32,72.79,109.78,72.15,110.08,72Z" style="fill:#ebebeb"></path><path d="M100.3,91.07a82,82,0,0,1-2.64,12.19.3.3,0,0,1-.59-.12c.56-3.76,1.58-7.45,2.13-11.2a56.16,56.16,0,0,0,.66-11.51c-.36-6.33-2.08-13.07-6.21-18-.09-.12.1-.28.19-.18,8.28,9.65,7,21.48,7,22.54,1.17-4,2.38-8.57,6.81-12.64.19-.18.34-.09.31.21-.79,7.4-2.85,11.27-7.15,15.23C100.64,88.74,100.49,89.91,100.3,91.07Z" style="fill:#a6a6a6"></path><path d="M93.57,63.52c-1.49-.66-3.54,1.23-5,1.36a1.22,1.22,0,0,1-1.49-1c-.37-2.12,2.13-3.32,4.11-3.7-1.25-.08-2.48.26-3.71-.07a1.18,1.18,0,0,1-1-1.49c.55-2.39,3.71-2,5.59-1.19-.6-1-2.35-4-.58-4.17s3.64,3.72,4.23,5c.88,1.88,1.76,4.47.93,6.34C95.72,66.74,94.48,64.51,93.57,63.52Z" style="fill:#dbdbdb"></path><path d="M93.82,64.08c-1.46-1.75-5.65-2.27-5.61-3.13.08-1.74,3.43-1.34,5.08-.78-1.24-1.08-3.68-3-2.93-4.36.92-1.63,4.31,1.8,5.62,4.4,1.64,3.27.68,5.19.06,5.37C95.19,65.82,94.06,64.38,93.82,64.08Z" style="fill:#ebebeb"></path><path d="M105.75,93.29l3.65,27.88H87.19c.46-2.47,4.59-27.91,4.59-27.91Z" style="fill:#dbdbdb"></path></g><g id="freepik--Floor--inject-137"><polygon points="41.18 404.79 93.39 404.55 145.59 404.46 250 404.29 354.41 404.46 406.62 404.55 458.82 404.79 406.62 405.03 354.41 405.12 250 405.29 145.59 405.12 93.39 405.03 41.18 404.79" style="fill:#263238"></polygon></g><g id="freepik--Shadows--inject-137"><ellipse cx="250" cy="440.61" rx="200.08" ry="27.5" style="fill:#ebebeb"></ellipse></g><g id="freepik--Lamp--inject-137"><rect x="378.76" y="397.08" width="67.83" height="7.71" style="fill:#455a64"></rect><rect x="408.66" y="157.8" width="8.04" height="239.27" style="fill:#455a64"></rect><rect x="408.66" y="157.8" width="8.04" height="40.72" style="fill:#263238"></rect><polygon points="455.22 181.38 370.13 181.38 376.31 161.06 376.54 160.34 394.53 101.22 430.82 101.22 448.83 160.35 448.83 160.37 449.02 161.04 455.22 181.38" style="fill:#123C69"></polygon><path d="M397.54,114.88a.58.58,0,0,1-.57.57.57.57,0,0,1-.57-.57.56.56,0,0,1,.57-.57A.57.57,0,0,1,397.54,114.88Z" style="fill:#fff"></path><path d="M408,114.88a.58.58,0,0,1-1.15,0,.58.58,0,0,1,1.15,0Z" style="fill:#fff"></path><path d="M418.49,114.88a.57.57,0,0,1-.57.57.58.58,0,0,1-.57-.57.57.57,0,0,1,.57-.57A.56.56,0,0,1,418.49,114.88Z" style="fill:#fff"></path><path d="M429,114.88a.58.58,0,0,1-.57.57.57.57,0,0,1-.57-.57.56.56,0,0,1,.57-.57A.57.57,0,0,1,429,114.88Z" style="fill:#fff"></path><path d="M402.78,107.54a.58.58,0,1,1-.57-.57A.57.57,0,0,1,402.78,107.54Z" style="fill:#fff"></path><path d="M413.25,107.54a.56.56,0,0,1-.57.57.57.57,0,1,1,0-1.14A.56.56,0,0,1,413.25,107.54Z" style="fill:#fff"></path><path d="M423.73,107.54a.57.57,0,1,1-.57-.57A.56.56,0,0,1,423.73,107.54Z" style="fill:#fff"></path><path d="M387.06,130.11a.57.57,0,1,1-.57-.57A.57.57,0,0,1,387.06,130.11Z" style="fill:#fff"></path><path d="M397.54,130.11a.58.58,0,0,1-.57.58.58.58,0,1,1,.57-.58Z" style="fill:#fff"></path><path d="M408,130.11a.58.58,0,1,1-.58-.57A.58.58,0,0,1,408,130.11Z" style="fill:#fff"></path><path d="M418.49,130.11a.57.57,0,0,1-.57.58.58.58,0,0,1,0-1.15A.57.57,0,0,1,418.49,130.11Z" style="fill:#fff"></path><path d="M429,130.11a.58.58,0,0,1-.57.58.58.58,0,1,1,.57-.58Z" style="fill:#fff"></path><path d="M439.45,130.11a.58.58,0,1,1-.57-.57A.58.58,0,0,1,439.45,130.11Z" style="fill:#fff"></path><path d="M392.3,122.78a.58.58,0,0,1-.57.57.58.58,0,0,1,0-1.15A.58.58,0,0,1,392.3,122.78Z" style="fill:#fff"></path><path d="M402.78,122.78a.58.58,0,1,1-.57-.58A.58.58,0,0,1,402.78,122.78Z" style="fill:#fff"></path><path d="M413.25,122.78a.57.57,0,0,1-.57.57.58.58,0,1,1,.57-.57Z" style="fill:#fff"></path><path d="M423.73,122.78a.57.57,0,1,1-.57-.58A.57.57,0,0,1,423.73,122.78Z" style="fill:#fff"></path><path d="M434.21,122.78a.58.58,0,0,1-.57.57.58.58,0,0,1,0-1.15A.58.58,0,0,1,434.21,122.78Z" style="fill:#fff"></path><path d="M387.06,145.35a.57.57,0,1,1-1.14,0,.57.57,0,1,1,1.14,0Z" style="fill:#fff"></path><path d="M397.54,145.35a.58.58,0,0,1-.57.57.57.57,0,0,1-.57-.57.56.56,0,0,1,.57-.57A.57.57,0,0,1,397.54,145.35Z" style="fill:#fff"></path><path d="M408,145.35a.58.58,0,0,1-1.15,0,.58.58,0,0,1,1.15,0Z" style="fill:#fff"></path><path d="M418.49,145.35a.57.57,0,0,1-.57.57.58.58,0,0,1-.57-.57.57.57,0,0,1,.57-.57A.56.56,0,0,1,418.49,145.35Z" style="fill:#fff"></path><path d="M429,145.35a.58.58,0,0,1-.57.57.57.57,0,0,1-.57-.57.56.56,0,0,1,.57-.57A.57.57,0,0,1,429,145.35Z" style="fill:#fff"></path><path d="M439.45,145.35a.58.58,0,1,1-.57-.57A.57.57,0,0,1,439.45,145.35Z" style="fill:#fff"></path><path d="M392.3,138a.57.57,0,0,1-.57.57.57.57,0,1,1,0-1.14A.57.57,0,0,1,392.3,138Z" style="fill:#fff"></path><path d="M402.78,138a.58.58,0,1,1-.57-.57A.57.57,0,0,1,402.78,138Z" style="fill:#fff"></path><circle cx="412.68" cy="138.01" r="0.57" style="fill:#fff"></circle><path d="M423.73,138a.57.57,0,1,1-.57-.57A.56.56,0,0,1,423.73,138Z" style="fill:#fff"></path><circle cx="433.64" cy="138.01" r="0.57" style="fill:#fff"></circle><path d="M376.59,160.58a.54.54,0,0,1-.28.48l.23-.72A.52.52,0,0,1,376.59,160.58Z" style="fill:#fff"></path><path d="M387.06,160.58a.57.57,0,1,1-.57-.57A.57.57,0,0,1,387.06,160.58Z" style="fill:#fff"></path><path d="M397.54,160.58a.58.58,0,0,1-.57.58.58.58,0,1,1,.57-.58Z" style="fill:#fff"></path><path d="M408,160.58a.58.58,0,1,1-.58-.57A.58.58,0,0,1,408,160.58Z" style="fill:#fff"></path><path d="M418.49,160.58a.57.57,0,0,1-.57.58.58.58,0,0,1,0-1.15A.57.57,0,0,1,418.49,160.58Z" style="fill:#fff"></path><path d="M429,160.58a.58.58,0,0,1-.57.58.58.58,0,1,1,.57-.58Z" style="fill:#fff"></path><circle cx="438.88" cy="160.58" r="0.57" style="fill:#fff"></circle><path d="M449,161a.55.55,0,0,1-.23-.46.46.46,0,0,1,0-.21Z" style="fill:#fff"></path><path d="M381.82,153.25a.57.57,0,0,1-.57.57.58.58,0,1,1,.57-.57Z" style="fill:#fff"></path><path d="M392.3,153.25a.58.58,0,0,1-.57.57.58.58,0,0,1,0-1.15A.58.58,0,0,1,392.3,153.25Z" style="fill:#fff"></path><path d="M402.78,153.25a.58.58,0,1,1-.57-.58A.58.58,0,0,1,402.78,153.25Z" style="fill:#fff"></path><path d="M413.25,153.25a.57.57,0,0,1-.57.57.58.58,0,1,1,.57-.57Z" style="fill:#fff"></path><path d="M423.73,153.25a.57.57,0,1,1-.57-.58A.57.57,0,0,1,423.73,153.25Z" style="fill:#fff"></path><path d="M434.21,153.25a.58.58,0,0,1-.57.57.58.58,0,0,1,0-1.15A.58.58,0,0,1,434.21,153.25Z" style="fill:#fff"></path><path d="M444.69,153.25a.58.58,0,1,1-.58-.58A.58.58,0,0,1,444.69,153.25Z" style="fill:#fff"></path><path d="M376.58,175.82a.57.57,0,0,1-.57.57.58.58,0,0,1-.57-.57.57.57,0,0,1,.57-.57A.56.56,0,0,1,376.58,175.82Z" style="fill:#fff"></path><path d="M387.06,175.82a.57.57,0,1,1-1.14,0,.57.57,0,1,1,1.14,0Z" style="fill:#fff"></path><path d="M397.54,175.82a.58.58,0,0,1-.57.57.57.57,0,0,1-.57-.57.56.56,0,0,1,.57-.57A.57.57,0,0,1,397.54,175.82Z" style="fill:#fff"></path><path d="M408,175.82a.58.58,0,0,1-1.15,0,.58.58,0,0,1,1.15,0Z" style="fill:#fff"></path><path d="M418.49,175.82a.57.57,0,0,1-.57.57.58.58,0,0,1-.57-.57.57.57,0,0,1,.57-.57A.56.56,0,0,1,418.49,175.82Z" style="fill:#fff"></path><path d="M429,175.82a.58.58,0,0,1-.57.57.57.57,0,0,1-.57-.57.56.56,0,0,1,.57-.57A.57.57,0,0,1,429,175.82Z" style="fill:#fff"></path><circle cx="438.88" cy="175.82" r="0.57" style="fill:#fff"></circle><path d="M449.93,175.82a.58.58,0,0,1-1.15,0,.58.58,0,0,1,1.15,0Z" style="fill:#fff"></path><path d="M381.82,168.48a.56.56,0,0,1-.57.57.57.57,0,1,1,0-1.14A.56.56,0,0,1,381.82,168.48Z" style="fill:#fff"></path><path d="M392.3,168.48a.57.57,0,0,1-.57.57.57.57,0,1,1,0-1.14A.57.57,0,0,1,392.3,168.48Z" style="fill:#fff"></path><path d="M402.78,168.48a.58.58,0,1,1-.57-.57A.57.57,0,0,1,402.78,168.48Z" style="fill:#fff"></path><path d="M413.25,168.48a.56.56,0,0,1-.57.57.57.57,0,1,1,0-1.14A.56.56,0,0,1,413.25,168.48Z" style="fill:#fff"></path><path d="M423.73,168.48a.57.57,0,1,1-.57-.57A.56.56,0,0,1,423.73,168.48Z" style="fill:#fff"></path><path d="M434.21,168.48a.57.57,0,0,1-.57.57.57.57,0,1,1,0-1.14A.57.57,0,0,1,434.21,168.48Z" style="fill:#fff"></path><path d="M444.69,168.48a.58.58,0,1,1-.58-.57A.57.57,0,0,1,444.69,168.48Z" style="fill:#fff"></path></g><g id="freepik--Chair--inject-137"><path d="M102.51,426.94l191.46.83c46.54-36.55,51.34-90.69,18.15-123.5-20.1-19.85-45.61-15.85-69.91-19l-.07,0c-8.46-1.1-16.76-3.07-24.64-7.23-25-13.2-39.12-44.33-60.17-70.52q-3.93-4.92-8.24-9.55c-17.3-18.48-51.75-19.08-69.77,6.9C33.54,270.86,54.51,369.12,102.51,426.94Z" style="fill:#c7c7c7"></path><path d="M98.26,275.9c5,78.55,95.73,107.87,152.39,84.34,49.27-20.46,33.14-67.16-8.44-75l-.07,0c-8.46-1.1-16.76-3.07-24.64-7.23-25-13.2-39.12-44.33-60.17-70.52C126,191.22,94.58,218.38,98.26,275.9Z" style="fill:#a6a6a6"></path></g><g id="freepik--Character--inject-137"><path d="M418,437.56c-3.28.08-88.19-26.17-90.79-29.21-.28-.34,1.14-4,3.33-14,.1-.48-1.17-2.94-3.25-6.5-7.82-13.38-27-42.54-27-42.54L355,324.06l26.17,54.22,6.8,14.1s28.33,28.48,30.84,32.13S421.31,437.49,418,437.56Z" style="fill:#ad6359"></path><path d="M418,437.57c-3.27.07-88.19-26.17-90.79-29.22-.28-.33,1.14-4,3.34-14a0,0,0,0,1,0,0c14.15,5.82,73.53,30,77.68,27,2.47-1.77.4-6.47-2.14-10.55,6.11,6.31,11.67,12.16,12.71,13.69C421.32,428.16,421.31,437.49,418,437.57Z" style="fill:#263238"></path><path d="M373.11,354.45l-9.06,5-29.26,16.25-16,8.88s-27.57-55-40.84-69.85l0,0a21.08,21.08,0,0,0-2.42-2.37h0a12.67,12.67,0,0,0-4.34-1.09h0c-17.79-2.16-77.68,3.66-119.06,1l19.33-25.83L180,275c46.62-5.32,103.83-24.38,129.65-11.43C337.64,277.6,373.11,354.45,373.11,354.45Z" style="fill:#37474f"></path><path d="M364,348.15c-9.15,4.77-6.58,3.28-15.68,8.15-4.45,2.38-26.85,14.29-30.63,17.2a.1.1,0,0,0,.1.17c4.49-1.61,26.62-14,31-16.46,9-5,6.37-3.68,15.32-8.81A.14.14,0,0,0,364,348.15Z" style="fill:#263238"></path><path d="M334.79,375.73l-16,8.88s-27.57-55-40.84-69.85Z" style="fill:#263238"></path><path d="M324.38,377.07c-6.81-11.38-37.81-67.59-44-69.8-5.62-2-118,.32-119.68.34-.12,0-.13.18,0,.18,13.31-.17,116-.54,119,.62,6.09,2.41,43.17,67.61,44.08,69C324,377.74,324.62,377.46,324.38,377.07Z" style="fill:#263238"></path><path d="M120.62,288.74s-3.55,33.9,13.65,50.75c20.58,20.18,156.39,15.08,177.44,8.28s21.71-40.77-1.3-48.64c-21.89-7.48-118.93-11.79-121.23-12.7s-9-11.66-9-11.66Z" style="fill:#37474f"></path><path d="M149.37,287.79c0-.16-.28-.11-.28,0a18.69,18.69,0,0,1-4.38,12c-3.22,3.72-8,5.81-12.28,8-.42.21-.1.85.33.73a38.43,38.43,0,0,0,7.6-3.28,18.51,18.51,0,0,0,5.72-4.76A16.34,16.34,0,0,0,149.37,287.79Z" style="fill:#263238"></path><path d="M188.25,284.31c-1-1.22-2-2.39-3-3.58-2.37-2.83-4.75-5.66-7.24-8.38-.23-.26-.69.1-.48.39,1.68,2.19,3.45,4.3,5.19,6.44l2.69,3.27a20.32,20.32,0,0,1,2.52,3.19c.65,1.21-.21,2.25-1.46,2.38a4.36,4.36,0,0,1-3-1.11,40.59,40.59,0,0,1-5.14-5.5q-1.5-1.68-3-3.35c-1.08-1.18-2.23-2.3-3.3-3.48a.09.09,0,0,0-.14.12c.94,1.28,1.8,2.63,2.75,3.92s1.89,2.57,2.86,3.84,1.87,2.37,2.85,3.52a11.89,11.89,0,0,0,2.89,2.59c1.8,1.06,4.93,1.29,5.89-1A3.29,3.29,0,0,0,188.25,284.31Z" style="fill:#263238"></path><path d="M308.83,347.9c-7.25.13-14.49.55-21.74.71s-14.37.19-21.56.12q-21.66-.19-43.29-1.68c-14.56-1-30.26-2.46-44.72-4.46-6.92-1-13.93-1.76-20.77-3.23A32.74,32.74,0,0,1,140.36,331c-9.36-9.08-13-22.44-14.5-35.2-.2-1.71-.37-3.43-.51-5.14,0-.12-.18-.12-.17,0,.84,13.09,2.88,26.73,11.11,37.25a32.69,32.69,0,0,0,13.4,10.4c6.48,2.6,13.67,3.21,20.5,4.13,14.52,2,30.29,3.49,44.89,4.63s29.43,1.85,44.17,2.07,29.48,0,44.2-.72c1.8-.09,3.59-.19,5.39-.35C308.94,348.05,308.94,347.89,308.83,347.9Z" style="fill:#263238"></path><path d="M328.18,316.22a23.32,23.32,0,0,0-9.71-13.88c-5.21-3.56-11.45-5.18-17.63-6.08-7-1-14.06-1.53-21.09-2.22q-21.62-2.1-43.28-3.88c-14.43-1.18-45.5-3.6-47.25-3.67-.15,0-.18.26,0,.27,13.93,1.55,26.6,2.88,40.55,4.15s28.05,2.61,42.06,4q10.47,1,20.94,2.11c6.47.67,13.12,1.33,19.19,3.83,5.2,2.14,9.88,5.59,12.54,10.65a25,25,0,0,1,2.08,16.11,28.45,28.45,0,0,1-6.74,13.63,24.09,24.09,0,0,1-12.61,7.61c-1.28.28-2.82.48-4,.71-.09,0-.18.21-.09.21,10.43.26,20.08-7.36,23.84-16.88A27.92,27.92,0,0,0,328.18,316.22Z" style="fill:#263238"></path><path d="M154.34,223.64c23.37,14.38,71.09,28.77,77,18.74,7.29-12.34-6.51-41.76-7.81-45.73-1.4-4.25-35.48,10.34-32.43,14,1.8,2.18,3.24,4.72,2.49,4.72-2.34,0-8.45-2.28-32.35-5.57C148,208,138.87,214.12,154.34,223.64Z" style="fill:#ad6359"></path><path d="M186.23,212.47l-4.95,11.06-6.23,13.91s-15.91-6.65-24.52-13.91c-6.32-5.34-8.68-11-5.54-13.69,1.14-1,3-1.56,5.6-1.61C165.58,208,186.23,212.47,186.23,212.47Z" style="fill:#123C69"></path><path d="M180.73,212.24c-2.07,4.21-9.47,19.72-9.65,22,0,.05.15.12.18.08,1.54-1.66,8-17.57,9.73-22C181,212.27,180.77,212.16,180.73,212.24Z" style="fill:#263238"></path><path d="M181.28,223.53l-6.23,13.91s-15.91-6.65-24.52-13.91c-6.32-5.34-8.68-11-5.54-13.69Z" style="fill:#263238"></path><path d="M216.32,178.17c4.55,5.85,9.17,21.45,8.84,25.64s-26.6,12.93-30.18,10.52-17.37-23.28-17.26-30.84S211.61,172.11,216.32,178.17Z" style="fill:#ad6359"></path><path d="M177.67,166.41c-2.29-2.56-11.06-9-13.27-7s2.77,7.9,4.87,10.22c4.32,4.78,7.52,13.1,9,17.15s9.3-3.59,9.3-3.59S183.61,173.05,177.67,166.41Z" style="fill:#ad6359"></path><path d="M183.11,191.43s2.42,7.22,6.76,7.21c4.18,0,3.43-6.19,3.38-6.64.13.38,2.52,7,6.88,6.5,4.53-.48,2.71-6.55,2.59-6.94.24.32,3.44,4.51,6.67,3.41,5.55-1.9-2.34-12.84-1.38-17.49,0,0,8.07.72,8.31.69,0,0-7.29-10.56-13.64-11.5a4.09,4.09,0,0,0-4.47,2.52s-2-3.66-5.42-3.41c-1.76.14-3.12,3.09-3.12,3.09s-1.7-2.87-4.75-2.45c-2.44.32-3.74,3.31-3.92,4.47C179.66,179.84,183.11,191.43,183.11,191.43Z" style="fill:#ad6359"></path><path d="M181.28,170.09c0-.07-.1-.09-.11,0a36.51,36.51,0,0,0,1.94,21.64c.09.21.48.15.42-.1A75,75,0,0,1,181.28,170.09Z" style="fill:#263238"></path><path d="M189.62,168.76c0-.08-.13-.09-.14,0-1.49,7.19-.66,16.32,3.58,23.48.14.24.52.32.38,0C191,187.29,189.25,175.56,189.62,168.76Z" style="fill:#263238"></path><path d="M203.19,192c-3.8-7-5-14.56-5.06-22.47,0-.1-.15-.09-.17,0-1,3.89-.43,8.92.36,12.8a21,21,0,0,0,4.62,9.81C203,192.2,203.27,192.11,203.19,192Z" style="fill:#263238"></path><path d="M183.11,191.43a23.94,23.94,0,0,0,2.13,3.84,8.14,8.14,0,0,0,3.07,2.86,2.69,2.69,0,0,0,1.89.12,3.85,3.85,0,0,0,1.64-1.06,4.67,4.67,0,0,0,.92-3.7l-.43-3.19,1.52,2.84a13.39,13.39,0,0,0,2.55,3.42,4.75,4.75,0,0,0,3.55,1.5,2.69,2.69,0,0,0,2.56-2.22,8,8,0,0,0-.39-4.06l-1.18-3.62,2.3,3a12.38,12.38,0,0,0,2.2,2.26,5.15,5.15,0,0,0,2.7,1.19,2.45,2.45,0,0,0,2.27-1.17,5.44,5.44,0,0,0,.32-3,41.7,41.7,0,0,0-1.57-6.42c-.31-1.07-.62-2.15-.88-3.24a8,8,0,0,1-.27-3.33,8.48,8.48,0,0,0,.57,3.25c.34,1.06.73,2.1,1.12,3.14a35.94,35.94,0,0,1,1.94,6.48,6.29,6.29,0,0,1-.27,3.59,3.46,3.46,0,0,1-3.29,1.86,6.28,6.28,0,0,1-3.38-1.38,14.25,14.25,0,0,1-2.49-2.48l1.11-.6a9.44,9.44,0,0,1,.51,4.79,3.91,3.91,0,0,1-1.34,2.28,4.39,4.39,0,0,1-2.43.93,5.94,5.94,0,0,1-4.49-1.89,14.51,14.51,0,0,1-2.76-3.8l1.09-.35a5.64,5.64,0,0,1-1.38,4.53,4.87,4.87,0,0,1-2.1,1.2,3.42,3.42,0,0,1-2.4-.26,8.32,8.32,0,0,1-3.11-3.29A20.34,20.34,0,0,1,183.11,191.43Z" style="fill:#263238"></path><path d="M192,211.19S164.5,196,175.72,188.13c3.33-2.32,19.8-7.91,21-4.62,1.53,4.24-4.9,7.85-9.3,9.48,0,0,10.08,3.86,9.48,11.68A7.78,7.78,0,0,1,192,211.19Z" style="fill:#ad6359"></path><path d="M174.83,188.84a16.49,16.49,0,0,1,4-2.63,35.85,35.85,0,0,1,4.44-1.85,55.36,55.36,0,0,1,9.33-2.43,9.07,9.07,0,0,1,2.56-.06,3.2,3.2,0,0,1,1.37.49,2.41,2.41,0,0,1,.6.53,2.58,2.58,0,0,1,.39.7,4,4,0,0,1-.08,2.81,7.45,7.45,0,0,1-1.41,2.21,14.75,14.75,0,0,1-4,2.95,32.46,32.46,0,0,1-4.45,1.95v-1a20.24,20.24,0,0,1,3.25,1.75,18.49,18.49,0,0,1,2.83,2.32,12.49,12.49,0,0,1,2.14,3,9.33,9.33,0,0,1,1,3.45,10.7,10.7,0,0,0-1.37-3.26,12.62,12.62,0,0,0-2.3-2.64,16.93,16.93,0,0,0-2.83-2.06,19.39,19.39,0,0,0-3.13-1.48l-1.35-.47,1.34-.57a35.62,35.62,0,0,0,4.23-2,14.28,14.28,0,0,0,3.61-2.74c1-1.07,1.66-2.51,1.23-3.66s-2-1.05-3.52-.88-3.08.51-4.62.84-3.09.7-4.6,1.14C180.52,186.09,177.45,187,174.83,188.84Z" style="fill:#263238"></path><path d="M193.62,215.41l2.15,2.49,2.11,2.51,4.23,5c1.41,1.66,2.83,3.31,4.28,4.93.73.82,1.45,1.63,2.21,2.41s1.52,1.56,2.28,2.36a40,40,0,0,1-5-4.23c-1.59-1.52-3.05-3.16-4.49-4.82s-2.78-3.39-4.06-5.17S194.74,217.3,193.62,215.41Z" style="fill:#263238"></path><path d="M191.06,281.54c-.94,3.31-51.2,21.45-76,16.4,0,0-3.55-46.37,17.63-82.32,5.07-8.6,17.13-8.83,23.68-5a53.57,53.57,0,0,1,6.62,5c6.34,5.46,17.68,19.35,19.3,23.4,2.66,6.69-2,15.43-2,15.43Z" style="fill:#123C69"></path><path d="M126.45,222.22c-15.47,21-30.55,60-20.48,67.13,13.56,9.59,55.39,15.09,88.4,14.38,4.57-.1-.42-34.64-5.3-34.78-6.16-.19-53-1.68-54.2-2.95-1-1.09,2.18-18.57,3.75-36.85C140.46,207.78,130.87,216.21,126.45,222.22Z" style="fill:#ad6359"></path><path d="M188.11,268.91s13.88-1,23-1.27c5.08-.14,13.81.4,17.59,2,5.65,2.4,27.75,16.06,24.56,21.49-2.9,4.92-20.39-9.23-20.39-9.23s18.91,12.71,14.34,18S225,286.57,225,286.57s19.14,13.5,13.56,18.19c-4.21,3.55-21.14-12.4-21.14-12.4s16.38,11.71,12.2,15.55c-4.62,4.24-21.17-9.51-21.17-9.51-12.26,8-21.35,6.74-27.72,5.11C179.17,303.11,188.11,268.91,188.11,268.91Z" style="fill:#ad6359"></path><path d="M226.58,277.09c2.28,1.42,4.59,2.83,6.74,4.44s4.23,3.3,6.21,5.1a45.23,45.23,0,0,1,7.05,7.75c-4-4.78-11.58-10.66-13.72-12.28s-4.2-3.32-6.34-4.93C226.47,277.13,226.53,277.06,226.58,277.09Z" style="fill:#263238"></path><path d="M220.63,284.73c2.83,1.93,5.71,3.74,8.45,5.79s5.14,4.23,7.73,6.46c.19.17,0,.22-.17.06-2.67-2.13-5.3-3.88-8-6s-5.3-4.29-8.06-6.27C220.53,284.76,220.59,284.7,220.63,284.73Z" style="fill:#263238"></path><path d="M214.34,290.36a76.78,76.78,0,0,1,12.24,9.85c.19.18,0,.22-.22.05-4-3.35-7.13-6-12.12-9.75C214.17,290.45,214.24,290.3,214.34,290.36Z" style="fill:#263238"></path><path d="M108.8,249l30.39-.85s2-14.59,1.69-24.73c-.21-6.65-1-12.81-1.84-13.13-1.1-.42-5.48,2.05-9.49,6.52A122.33,122.33,0,0,0,108.8,249Z" style="fill:#123C69"></path><path d="M138,243.43c-4.68-.26-17.42-.59-25.72.28,0,0,0,.19,0,.2,7,.32,21,0,25.72-.2C138.08,243.71,138.08,243.43,138,243.43Z" style="fill:#263238"></path><path d="M141.52,233.55c-.27.72-.51,1.44-.73,2.17,0,.1-.06.21-.1.31.13-1.85.22-3.7.2-5.55,0,0-.08-.07-.09,0-.39,2.88-2.07,17.39-2.07,17.39-.26,0-2.08.35-2.2.34s-.1.18,0,.15,2.32,0,2.92-.06a29.27,29.27,0,0,0,.55-4.19c.16-1.53.29-3,.41-4.58.06-.69.11-1.38.16-2.06s.27-1.16.43-1.73.42-1.43.65-2.14C141.7,233.49,141.55,233.46,141.52,233.55Z" style="fill:#263238"></path><path d="M131.35,215s17.15,9.68,24.34,5.51c3.73-2.16,3.13-12,3.13-12a30.6,30.6,0,0,0-16.59-.12A26,26,0,0,0,131.35,215Z" style="fill:#ad6359"></path><ellipse cx="135.89" cy="169.61" rx="30.97" ry="32.17" style="fill:#263238"></ellipse><path d="M121.06,192.76a4.27,4.27,0,1,1-4.26-4.26A4.27,4.27,0,0,1,121.06,192.76Z" style="fill:#263238"></path><path d="M166.31,186.37A4.27,4.27,0,1,1,162,182.1,4.27,4.27,0,0,1,166.31,186.37Z" style="fill:#263238"></path><path d="M170.58,166.46a4.27,4.27,0,1,1-4.27-4.27A4.27,4.27,0,0,1,170.58,166.46Z" style="fill:#263238"></path><path d="M111.31,162.58a4.27,4.27,0,1,1-4.27-4.26A4.27,4.27,0,0,1,111.31,162.58Z" style="fill:#263238"></path><path d="M116.8,151.1a4.27,4.27,0,1,1-4.27-4.27A4.27,4.27,0,0,1,116.8,151.1Z" style="fill:#263238"></path><path d="M122,146.27a4.27,4.27,0,1,1-4.27-4.26A4.27,4.27,0,0,1,122,146.27Z" style="fill:#263238"></path><path d="M127.12,141a4.27,4.27,0,1,1-4.26-4.26A4.27,4.27,0,0,1,127.12,141Z" style="fill:#263238"></path><path d="M133.87,140.2a4.27,4.27,0,1,1-4.27-4.26A4.27,4.27,0,0,1,133.87,140.2Z" style="fill:#263238"></path><path d="M153.64,140.2a4.27,4.27,0,1,1-4.27-4.26A4.27,4.27,0,0,1,153.64,140.2Z" style="fill:#263238"></path><path d="M163.09,148.58a4.27,4.27,0,1,1-4.27-4.27A4.27,4.27,0,0,1,163.09,148.58Z" style="fill:#263238"></path><circle cx="109.19" cy="181.33" r="4.27" style="fill:#263238"></circle><path d="M132.31,198.47a4.27,4.27,0,1,1-4.27-4.26A4.27,4.27,0,0,1,132.31,198.47Z" style="fill:#263238"></path><path d="M138.36,198.53a4.27,4.27,0,1,1-4.26-4.27A4.26,4.26,0,0,1,138.36,198.53Z" style="fill:#263238"></path><path d="M111.31,175.08a4.27,4.27,0,1,1-4.27-4.27A4.27,4.27,0,0,1,111.31,175.08Z" style="fill:#263238"></path><circle cx="112.09" cy="187.59" r="3.87" style="fill:#263238"></circle><path d="M140.15,138.13a3.88,3.88,0,1,1-3.87-3.87A3.88,3.88,0,0,1,140.15,138.13Z" style="fill:#263238"></path><path d="M110.92,168.85A3.88,3.88,0,1,1,107,165,3.88,3.88,0,0,1,110.92,168.85Z" style="fill:#263238"></path><circle cx="109.19" cy="156.72" r="3.87" style="fill:#263238"></circle><circle cx="142.56" cy="138.59" r="3.87" style="fill:#263238"></circle><path d="M126.34,196.1a3.88,3.88,0,1,1-3.87-3.88A3.87,3.87,0,0,1,126.34,196.1Z" style="fill:#263238"></path><path d="M144,200a3.88,3.88,0,1,1-3.88-3.87A3.88,3.88,0,0,1,144,200Z" style="fill:#263238"></path><circle cx="147.08" cy="198.53" r="3.87" style="fill:#263238"></circle><circle cx="152.54" cy="194.65" r="3.87" style="fill:#263238"></circle><path d="M162.7,192a3.88,3.88,0,1,1-3.88-3.87A3.88,3.88,0,0,1,162.7,192Z" style="fill:#263238"></path><path d="M169.57,180.9A3.88,3.88,0,1,1,165.7,177,3.88,3.88,0,0,1,169.57,180.9Z" style="fill:#263238"></path><path d="M169.57,173.75a3.88,3.88,0,1,1-3.87-3.87A3.88,3.88,0,0,1,169.57,173.75Z" style="fill:#263238"></path><path d="M158.82,143a3.88,3.88,0,1,1-3.87-3.87A3.88,3.88,0,0,1,158.82,143Z" style="fill:#263238"></path><circle cx="163.93" cy="153.53" r="3.87" style="fill:#263238"></circle><circle cx="164.78" cy="159.67" r="3.87" style="fill:#263238"></circle><path d="M140,211c.62,1.26,9,8.45,15,6.77,2-.56-.58-11.4-.58-11.4v-.84l-.07-11.81-15.13-5.43-2.16-.68s.23,3.23.56,7.24c0,.19,0,.37,0,.57s0,.45,0,.66c0,.6.09,1.21.14,1.82s.08.92.14,1.4.11,1,.16,1.46A77.09,77.09,0,0,0,140,211Z" style="fill:#ad6359"></path><path d="M137.65,194.83a23.7,23.7,0,0,0,16.8,10.68l-.07-11.81-15.13-5.43-2.16-.68S137.32,190.82,137.65,194.83Z" style="fill:#263238"></path><path d="M167.29,171c7.3,19.39-3.49,25.95-7.67,27.52-3.8,1.42-16.9,5.79-26.17-12.74s-2.55-28.05,6-31.77S160,151.58,167.29,171Z" style="fill:#ad6359"></path><path d="M162.65,169.56c-.48.09-.94.1-1.42.15a2.34,2.34,0,0,1-1.48-.13.74.74,0,0,1-.27-.86,1.83,1.83,0,0,1,1.58-1,2.69,2.69,0,0,1,1.9.4A.78.78,0,0,1,162.65,169.56Z" style="fill:#263238"></path><path d="M149,172a11.68,11.68,0,0,0,1.24-.71,2.29,2.29,0,0,0,1.14-1,.75.75,0,0,0-.28-.86,1.84,1.84,0,0,0-1.85.15,2.66,2.66,0,0,0-1.31,1.41A.78.78,0,0,0,149,172Z" style="fill:#263238"></path><path d="M153.26,176.16s-.08.1-.06.15c.5,1.32.85,2.92-.2,3.78,0,0,0,.09,0,.07C154.44,179.44,154,177.33,153.26,176.16Z" style="fill:#263238"></path><path d="M151.59,175.18c-2.2.58-.89,4.94,1.15,4.4S153.43,174.7,151.59,175.18Z" style="fill:#263238"></path><path d="M150.8,175.67c-.3.36-.55.91-1,1.09s-1.06-.12-1.54-.45c0,0-.07,0-.05.07.24.84.82,1.6,1.75,1.45s1.21-1.05,1.17-2C151.13,175.71,150.92,175.52,150.8,175.67Z" style="fill:#263238"></path><path d="M160.87,173.23s.12,0,.14.09c.35,1.36,1,2.87,2.35,3,0,0,0,.07,0,.08C161.81,176.59,161,174.58,160.87,173.23Z" style="fill:#263238"></path><path d="M161.66,171.46c2.13-.8,3.58,3.51,1.61,4.26S159.88,172.14,161.66,171.46Z" style="fill:#263238"></path><path d="M162.66,171.44c.42.12.89.42,1.31.31s.67-.71.83-1.26c0-.06.06,0,.08,0,.3.82.31,1.77-.42,2.19s-1.45-.14-1.92-.89C162.45,171.67,162.49,171.4,162.66,171.44Z" style="fill:#263238"></path><path d="M156.39,186.56a2.16,2.16,0,0,0,1.35.51,3.77,3.77,0,0,0,1.39-.72s.09,0,.07.06a1.9,1.9,0,0,1-1.54,1.18,1.51,1.51,0,0,1-1.39-.94C156.23,186.58,156.33,186.52,156.39,186.56Z" style="fill:#263238"></path><path d="M160.48,179.92s1,2.24,1.31,3.19a33,33,0,0,0-5.77,1.48c-.11,0-.28-.13,0-.33,1.47-1.15,4.83-1.73,4.83-1.73a30.55,30.55,0,0,1-1.52-3.3,9.19,9.19,0,0,1,2.3-.19c-1.78-4-4.19-7.79-5.91-11.86,0-.15.15-.26.23-.14,2.81,3.74,5,8.36,6.91,12.51C163.09,180.06,160.91,180,160.48,179.92Z" style="fill:#263238"></path><path d="M135,185.64c3.83.7,1-5,1-5s2.66-2.46.17-6.4c0,0,4.49.34,3.66-5.73,0,0,3.56-1.07,2.4-5.14,0,0,5.55,1.69,6.58-3.39,0,0,4.46,3.22,6.46-1.34,0,0,2,2.44,4.71.89,0,0,1.11,2.78,3.41,3.25,0,0-10.47-19.51-27.69-8.17C119.73,165.11,130.5,184.82,135,185.64Z" style="fill:#263238"></path><path d="M137.09,186.08s-6.1-5-8.49-2.66,3.42,10.45,7.08,10.76a3.5,3.5,0,0,0,4-3.08Z" style="fill:#ad6359"></path><path d="M130.33,185.7a.05.05,0,0,0,0,.1c2.59.29,4.42,2.1,5.91,4.1a1.93,1.93,0,0,0-2.93.27c-.05.06,0,.14.1.1a2.15,2.15,0,0,1,2.48.09,10.2,10.2,0,0,1,1.61,1.54c.17.18.52,0,.37-.26l0,0C137.06,188.61,133.59,185.11,130.33,185.7Z" style="fill:#263238"></path><path d="M123.11,171.85l-.92,2.42,8.15,4.84,1.95-5.44Zm6.47,4.92-5.59-2.9.2-.57,6.12,1.57Z" style="fill:#123C69"></path><path d="M123.69,168.27l.06,2.58,9.37,1.42-.24-5.77Zm7.85,2.12-6.28-.58,0-.6,6.26-.86Z" style="fill:#123C69"></path></g><g id="freepik--Table--inject-137"><rect x="97.78" y="384.17" width="166.96" height="11.28" style="fill:#455a64"></rect><polygon points="132.08 395.45 127.9 405.64 107.49 455.51 102.26 455.51 115.99 405.64 118.79 395.45 132.08 395.45" style="fill:#455a64"></polygon><polygon points="118.79 395.45 132.08 395.45 127.9 405.64 115.99 405.64 118.79 395.45" style="fill:#263238"></polygon><polygon points="260.25 455.51 255.03 455.51 234.62 405.64 230.45 395.45 243.73 395.45 246.53 405.64 260.25 455.51" style="fill:#455a64"></polygon><polygon points="246.53 405.64 234.62 405.64 230.45 395.45 243.73 395.45 246.53 405.64" style="fill:#263238"></polygon></g><g id="freepik--Mug--inject-137"><rect x="129.94" y="381.57" width="16.65" height="2.6" style="fill:#123C69"></rect><rect x="129.94" y="381.57" width="16.65" height="1.71" style="opacity:0.1"></rect><path d="M110.17,374.58a9.43,9.43,0,0,0,9.38,4,9.19,9.19,0,0,0,1.69-.49,12.15,12.15,0,0,0,2.36-1.23l-2.12-3.14a7.7,7.7,0,0,1-1.25.71,5.53,5.53,0,0,1-7-2c-2.28-3.21-3.1-10.54-.79-13.36.16-.21.82-.54,3.51,0,.49.11,1,.24,1.69.41a6.46,6.46,0,0,0,1.52.33l.07-1.88.18-1.88c-.17,0-.44-.11-.79-.21a24.16,24.16,0,0,0-3.79-.78c-2-.21-4,0-5.31,1.59C105.79,361.25,107.31,370.56,110.17,374.58Z" style="fill:#123C69"></path><path d="M121.48,373.73a7.7,7.7,0,0,1-1.25.71l1,3.66a12.15,12.15,0,0,0,2.36-1.23Z" style="opacity:0.1"></path><path d="M114.86,355.06l1.12,4c.49.11,1,.24,1.69.41a6.46,6.46,0,0,0,1.52.33l.07-1.88.18-1.88c-.17,0-.44-.11-.79-.21A24.16,24.16,0,0,0,114.86,355.06Z" style="opacity:0.1"></path><path d="M160.42,350.14s-2,17-5.45,24.13-8.27,7.93-11.26,7.93H132.82c-3,0-7.8-.8-11.25-7.93s-5.45-24.13-5.45-24.13Z" style="fill:#123C69"></path><path d="M158.28,363.2l-.48,2.16H118.73c-.15-.73-.31-1.44-.47-2.16Z" style="opacity:0.1"></path><path d="M157.27,367.52c-.42,1.6-.87,3.14-1.37,4.5H120.63c-.49-1.36-.95-2.9-1.36-4.5Z" style="opacity:0.1"></path></g><g id="freepik--speech-bubble--inject-137"><path d="M203.39,136.9a8.14,8.14,0,1,1-8.81-7.41A8.13,8.13,0,0,1,203.39,136.9Z" style="fill:#fff"></path><path d="M203.39,136.9a8.39,8.39,0,1,1-16.71,1.44,8.36,8.36,0,0,1,7.88-9.1,8.42,8.42,0,0,1,8.83,7.66Zm0,0a7.88,7.88,0,0,0-8.79-7.16A7.89,7.89,0,0,0,196,145.46a7.88,7.88,0,0,0,7.43-8.56Z" style="fill:#263238"></path><path d="M185.77,151.89a4.53,4.53,0,1,1-4.9-4.12A4.52,4.52,0,0,1,185.77,151.89Z" style="fill:#fff"></path><path d="M185.77,151.89a4.78,4.78,0,0,1-4.1,5.15,4.78,4.78,0,1,1-.82-9.52,4.78,4.78,0,0,1,4.92,4.37Zm0,0a4.27,4.27,0,1,0-1.1,3.26A4.31,4.31,0,0,0,185.77,151.89Z" style="fill:#263238"></path><path d="M264.24,99.06a23.76,23.76,0,0,1-32.82,24.76,19.94,19.94,0,0,1-31.71-.07,15.51,15.51,0,0,1-2.66.56A16.17,16.17,0,0,1,181.86,99a23.76,23.76,0,0,1,32-34.37A19.94,19.94,0,0,1,248.07,70a12.7,12.7,0,0,1,2.56-.58,13,13,0,0,1,11.21,21.73A23.28,23.28,0,0,1,264.24,99.06Z" style="fill:#fff"></path><path d="M264.24,99.06a24.09,24.09,0,0,1-1.71,12.16l-.64,1.42c-.24.46-.51.9-.76,1.35a27.78,27.78,0,0,1-1.73,2.59l-1,1.18-.51.58-.56.54L256.2,120l-1.22,1a23.93,23.93,0,0,1-23.62,3l.17,0a20.16,20.16,0,0,1-24.95,5.89,20.8,20.8,0,0,1-7.14-5.84l.37.12a16.17,16.17,0,0,1-5,.69,15.56,15.56,0,0,1-5-.85,16.54,16.54,0,0,1-8.13-6,17.61,17.61,0,0,1-2.32-4.55,16.39,16.39,0,0,1-.59-2.49,13.68,13.68,0,0,1-.24-2.55,16.61,16.61,0,0,1,3-9.66v.56a24,24,0,0,1-5.17-16,24.2,24.2,0,0,1,6.48-15.5,24.49,24.49,0,0,1,15-7.53A24.15,24.15,0,0,1,214,64.33l-.45.07a20.14,20.14,0,0,1,19-7.23,19.11,19.11,0,0,1,5.06,1.54,18.83,18.83,0,0,1,4.47,2.79,20.14,20.14,0,0,1,6.07,8.5l-.13-.06a12.78,12.78,0,0,1,4.25-.64,12.47,12.47,0,0,1,4.23.74,13.51,13.51,0,0,1,3.76,2.06,13.07,13.07,0,0,1,1.57,19.1v0A23.21,23.21,0,0,1,264.24,99.06Zm0,0a23.31,23.31,0,0,0-2.41-7.86h0a13,13,0,0,0,1.25-15.85,13.84,13.84,0,0,0-2.87-3.14,13.39,13.39,0,0,0-3.74-2,12.81,12.81,0,0,0-8.36,0l-.1,0,0-.09a19.9,19.9,0,0,0-6.07-8.33,18.77,18.77,0,0,0-4.43-2.7,19.16,19.16,0,0,0-5-1.45,20,20,0,0,0-10.18,1.13,19.75,19.75,0,0,0-8.21,6.08l-.19.24-.26-.17a23.29,23.29,0,0,0-15.76-3.79,23.55,23.55,0,0,0-14.43,7.31,23.44,23.44,0,0,0-1.23,30.29l.21.27-.2.29a15.63,15.63,0,0,0-2.86,9.11,12.14,12.14,0,0,0,.21,2.41,16,16,0,0,0,.55,2.37,17.2,17.2,0,0,0,2.18,4.32,16,16,0,0,0,7.68,5.72,14.68,14.68,0,0,0,4.78.86,15.38,15.38,0,0,0,4.82-.61l.23-.07.14.19a20.1,20.1,0,0,0,6.86,5.73,19.68,19.68,0,0,0,17.47.13,19.76,19.76,0,0,0,7-5.68l.07-.08.1,0a23.64,23.64,0,0,0,12.1,1.74,23.94,23.94,0,0,0,11.35-4.59l1.21-1,1.13-1.06.56-.54.51-.58,1-1.17a25.67,25.67,0,0,0,1.73-2.57c.26-.45.53-.89.77-1.35l.64-1.41A24,24,0,0,0,264.24,99.06Z" style="fill:#263238"></path><path d="M233.51,98.41l-.75,3.6a2.7,2.7,0,0,1-3.28,2.15,2.78,2.78,0,0,1-2.15-3.28l1.2-5.76c0-.05.07,0,.08-.1s-.05-.07,0-.12a2.85,2.85,0,0,1,3.28-2.15,6.34,6.34,0,1,0,2.58-12.41,6.23,6.23,0,0,0-5.95,1.94,2.8,2.8,0,0,1-4,.21,2.77,2.77,0,0,1-.17-3.91,11.9,11.9,0,1,1,9.17,19.83ZM231,110.55l-.21,1a2.69,2.69,0,0,1-3.28,2.15,2.78,2.78,0,0,1-2.15-3.28l.21-1a2.81,2.81,0,0,1,3.28-2.15A2.74,2.74,0,0,1,231,110.55Z" style="fill:#123C69"></path><path d="M204.69,91.1l-.45-3.65a2.7,2.7,0,0,1,2.41-3.09,2.77,2.77,0,0,1,3.09,2.41l.72,5.84s0,.06,0,.12.07,0,.07.1a2.86,2.86,0,0,1-2.41,3.1,6.34,6.34,0,1,0,1.56,12.58,6.27,6.27,0,0,0,5-3.76,2.79,2.79,0,0,1,3.69-1.48,2.75,2.75,0,0,1,1.42,3.64A11.89,11.89,0,1,1,204.69,91.1Zm-1.52-12.3-.13-1a2.72,2.72,0,0,1,2.41-3.1,2.79,2.79,0,0,1,3.1,2.42l.12,1a2.81,2.81,0,0,1-2.41,3.09A2.74,2.74,0,0,1,203.17,78.8Z" style="fill:#123C69"></path></g></svg>